RBDS028runT35_grf
version=1
nRows=30
nColumns=19
inDegrees=no
endheader
time	ground_force_r_vx	ground_force_r_vy	ground_force_r_vz	ground_force_r_px	ground_force_r_py	ground_force_r_pz	ground_force_r_mx	ground_force_r_my	ground_force_r_mz	ground_force_l_vx	ground_force_l_vy	ground_force_l_vz	ground_force_l_px	ground_force_l_py	ground_force_l_pz	ground_force_l_mx	ground_force_l_my	ground_force_l_mz
     14.99900000	      0.00000000	      0.00000000	      0.00000000	      0.00000000	      0.00000000	      0.00000000	      0.00000000	      0.00000000	      0.00000000	    -13.31607996	    109.63131975	    -11.09203563	      1.51413634	      0.00000000	      0.62141004	      0.00000000	     -0.32411796	     -0.00000000
     15.00000000	      0.00000000	      0.00000000	      0.00000000	      0.00000000	      0.00000000	      0.00000000	      0.00000000	      0.00000000	      0.00000000	    -19.02297137	    156.61617107	    -15.84576518	      2.16305191	      0.00000000	      0.88772862	      0.00000000	     -0.46302566	     -0.00000000
     15.00100000	      0.00000000	      0.00000000	      0.00000000	      0.00000000	      0.00000000	      0.00000000	      0.00000000	      0.00000000	      0.00000000	    -23.10906024	    180.45329575	    -15.26853385	      2.16112253	      0.00000000	      0.88956938	      0.00000000	     -0.40210869	     -0.00000000
     15.00200000	      0.00000000	      0.00000000	      0.00000000	      0.00000000	      0.00000000	      0.00000000	      0.00000000	      0.00000000	      0.00000000	    -27.19514912	    204.29042043	    -14.69130252	      2.15919316	      0.00000000	      0.89141014	      0.00000000	     -0.34119172	     -0.00000000
     15.00300000	      0.00000000	      0.00000000	      0.00000000	      0.00000000	      0.00000000	      0.00000000	      0.00000000	      0.00000000	      0.00000000	    -31.28123800	    228.12754511	    -14.11407119	      2.15726378	      0.00000000	      0.89325090	      0.00000000	     -0.28027476	     -0.00000000
     15.00400000	      0.00000000	      0.00000000	      0.00000000	      0.00000000	      0.00000000	      0.00000000	      0.00000000	      0.00000000	      0.00000000	    -35.39466774	    251.94410727	    -13.53845889	      2.15533113	      0.00000000	      0.89507580	      0.00000000	     -0.22096520	     -0.00000000
     15.00500000	      0.00000000	      0.00000000	      0.00000000	      0.00000000	      0.00000000	      0.00000000	      0.00000000	      0.00000000	      0.00000000	    -39.52176791	    275.75038817	    -12.96365610	      2.15339685	      0.00000000	      0.89689276	      0.00000000	     -0.16245935	     -0.00000000
     15.00600000	      0.00000000	      0.00000000	      0.00000000	      0.00000000	      0.00000000	      0.00000000	      0.00000000	      0.00000000	      0.00000000	    -43.64886808	    299.55666907	    -12.38885332	      2.15146256	      0.00000000	      0.89870973	      0.00000000	     -0.10395349	     -0.00000000
     15.00700000	      0.00000000	      0.00000000	      0.00000000	      0.00000000	      0.00000000	      0.00000000	      0.00000000	      0.00000000	      0.00000000	    -47.77322954	    323.33518338	    -11.83015429	      2.14952252	      0.00000000	      0.90051131	      0.00000000	     -0.04640167	     -0.00000000
     15.00800000	      0.00000000	      0.00000000	      0.00000000	      0.00000000	      0.00000000	      0.00000000	      0.00000000	      0.00000000	      0.00000000	    -51.89211355	    347.05816451	    -11.30366276	      2.14757095	      0.00000000	      0.90228214	      0.00000000	      0.00924209	     -0.00000000
     15.00900000	      0.00000000	      0.00000000	      0.00000000	      0.00000000	      0.00000000	      0.00000000	      0.00000000	      0.00000000	      0.00000000	    -56.01099757	    370.78114564	    -10.77717123	      2.14561937	      0.00000000	      0.90405297	      0.00000000	      0.06488585	     -0.00000000
     15.01000000	      0.00000000	      0.00000000	      0.00000000	      0.00000000	      0.00000000	      0.00000000	      0.00000000	      0.00000000	      0.00000000	    -60.12988159	    394.50412678	    -10.25067970	      2.14366780	      0.00000000	      0.90582381	     -0.00000000	      0.12052960	     -0.00000000
     15.01100000	      0.00000000	      0.00000000	      0.00000000	      0.00000000	      0.00000000	      0.00000000	      0.00000000	      0.00000000	      0.00000000	    -64.19152832	    418.08666294	     -9.80898162	      2.14168675	      0.00000000	      0.90752723	     -0.00000000	      0.17328386	     -0.00000000
     15.01200000	      0.00000000	      0.00000000	      0.00000000	      0.00000000	      0.00000000	      0.00000000	      0.00000000	      0.00000000	      0.00000000	    -68.25317506	    441.66919910	     -9.36728353	      2.13970571	      0.00000000	      0.90923066	     -0.00000000	      0.22603812	     -0.00000000
     15.01300000	      0.00000000	      0.00000000	      0.00000000	      0.00000000	      0.00000000	      0.00000000	      0.00000000	      0.00000000	      0.00000000	    -72.31482180	    465.25173525	     -8.92558545	      2.13772466	      0.00000000	      0.91093409	     -0.00000000	      0.27879238	     -0.00000000
     15.01400000	      0.00000000	      0.00000000	      0.00000000	      0.00000000	      0.00000000	      0.00000000	      0.00000000	      0.00000000	      0.00000000	    -76.30635122	    488.69689955	     -8.55674620	      2.13571655	      0.00000000	      0.91257951	     -0.00000000	      0.32991996	     -0.00000000
     15.01500000	      0.00000000	      0.00000000	      0.00000000	      0.00000000	      0.00000000	      0.00000000	      0.00000000	      0.00000000	      0.00000000	    -80.26282198	    512.07337790	     -8.22433637	      2.13369492	      0.00000000	      0.91419592	     -0.00000000	      0.38023421	     -0.00000000
     15.01600000	      0.00000000	      0.00000000	      0.00000000	      0.00000000	      0.00000000	      0.00000000	      0.00000000	      0.00000000	      0.00000000	    -84.21929275	    535.44985626	     -7.89192654	      2.13167329	      0.00000000	      0.91581233	     -0.00000000	      0.43054845	     -0.00000000
     15.01700000	      0.00000000	      0.00000000	      0.00000000	      0.00000000	      0.00000000	      0.00000000	      0.00000000	      0.00000000	      0.00000000	    -88.12527601	    558.73209440	     -7.59959254	      2.12963500	      0.00000000	      0.91739392	     -0.00000000	      0.48036658	     -0.00000000
     15.01800000	      0.00000000	      0.00000000	      0.00000000	      0.00000000	      0.00000000	      0.00000000	      0.00000000	      0.00000000	      0.00000000	    -91.93028429	    581.82585208	     -7.38741018	      2.12756341	      0.00000000	      0.91890587	     -0.00000000	      0.52919249	     -0.00000000
     15.01900000	      0.00000000	      0.00000000	      0.00000000	      0.00000000	      0.00000000	      0.00000000	      0.00000000	      0.00000000	      0.00000000	    -95.73529256	    604.91960977	     -7.17522783	      2.12549182	      0.00000000	      0.92041781	     -0.00000000	      0.57801840	     -0.00000000
     15.02000000	      0.00000000	      0.00000000	      0.00000000	      0.00000000	      0.00000000	      0.00000000	      0.00000000	      0.00000000	      0.00000000	    -99.54030083	    628.01336745	     -6.96304548	      2.12342023	      0.00000000	      0.92192976	     -0.00000000	      0.62684431	     -0.00000000
     15.02100000	      0.00000000	      0.00000000	      0.00000000	      0.00000000	      0.00000000	      0.00000000	      0.00000000	      0.00000000	      0.00000000	   -103.14948841	    650.73554895	     -6.86805874	      2.12129147	      0.00000000	      0.92332237	     -0.00000000	      0.67562170	     -0.00000000
     15.02200000	      0.00000000	      0.00000000	      0.00000000	      0.00000000	      0.00000000	      0.00000000	      0.00000000	      0.00000000	      0.00000000	   -106.75867598	    673.45773044	     -6.77307200	      2.11916271	      0.00000000	      0.92471498	     -0.00000000	      0.72439909	     -0.00000000
     15.02300000	      0.00000000	      0.00000000	      0.00000000	      0.00000000	      0.00000000	      0.00000000	      0.00000000	      0.00000000	      0.00000000	   -110.36786356	    696.17991194	     -6.67808527	      2.11703395	      0.00000000	      0.92610759	     -0.00000000	      0.77317647	     -0.00000000
     15.02400000	      0.00000000	      0.00000000	      0.00000000	      0.00000000	      0.00000000	      0.00000000	      0.00000000	      0.00000000	      0.00000000	   -113.81825498	    718.58725831	     -6.65040515	      2.11486384	      0.00000000	      0.92741267	     -0.00000000	      0.82316496	     -0.00000000
     15.02500000	      0.00000000	      0.00000000	      0.00000000	      0.00000000	      0.00000000	      0.00000000	      0.00000000	      0.00000000	      0.00000000	   -117.18924833	    740.83718711	     -6.65637834	      2.11267305	      0.00000000	      0.92867399	     -0.00000000	      0.87375899	     -0.00000000
     15.02600000	      0.00000000	      0.00000000	      0.00000000	      0.00000000	      0.00000000	      0.00000000	      0.00000000	      0.00000000	      0.00000000	   -120.56024169	    763.08711592	     -6.66235153	      2.11048227	      0.00000000	      0.92993531	     -0.00000000	      0.92435303	     -0.00000000
     15.02700000	      0.00000000	      0.00000000	      0.00000000	      0.00000000	      0.00000000	      0.00000000	      0.00000000	      0.00000000	      0.00000000	   -123.83835613	    785.14272487	     -6.69278791	      2.10826996	      0.00000000	      0.93114993	     -0.00000000	      0.97627796	     -0.00000000
     15.02800000	      0.00000000	      0.00000000	      0.00000000	      0.00000000	      0.00000000	      0.00000000	      0.00000000	      0.00000000	      0.00000000	   -126.93071274	    806.80969410	     -6.77215069	      2.10601461	      0.00000000	      0.93227114	     -0.00000000	      1.03086467	     -0.00000000
